#N canvas 733 172 450 300 (subpatch) 1;
#X obj 11 156 add;
#X floatatom 11 189 5 0 0 0 - - - 0;
#X msg 11 128 1;
#X obj 224 113 nbx 4 18 -1e+37 1e+37 0 0 empty empty empty 0 -8 0 10 #333333 #e4e4e4 #e4e4e4 0 256;
#X obj 193 256 sel 1, f 6;
#X obj 97 7 inlet maxsteps;
#X obj 8 89 inlet bang, f 11;
#X obj 64 165 expr if($f1 >= $f2 \, 1 \, 0);
#X msg 172 58 1;
#X obj 255 287 outlet bang;
#X connect 0 0 1 0;
#X connect 1 0 7 0;
#X connect 2 0 0 0;
#X connect 3 0 4 0;
#X connect 4 0 0 0;
#X connect 4 0 9 0;
#X connect 5 0 7 1;
#X connect 6 0 2 0;
#X connect 7 0 3 0;
#X connect 8 0 7 1;
#X coords 0 0 1 1 25 21 0;
