#N canvas 827 239 734 565 12;
#X obj 339 116 inlet~;
#X obj 231 246 f;
#X obj 261 246 + 1;
#X obj 231 304 sel 0;
#X obj 231 326 t b b;
#X obj 113 50 bng 19 50 50 0 empty empty empty 0 -8 0 10 #fcfcfc #dc9d00 #000000;
#X msg 231 372 1 0 \, 0 1 1;
#X obj 231 394 vline~;
#X obj 231 416 outlet~;
#X obj 555 185 loadbang;
#X msg 555 207 0;
#X obj 555 229 t f f f f;
#X obj 231 282 % 3;
#X obj 339 138 threshold~ 0.9 0 0.9 0;
#X obj 9 153 outlet "3";
#X obj 339 158 t b;
#X obj 95 34 nbx 3 16 1 20 0 0 empty empty empty 0 -8 0 10 #eeeeee #333333 #111111 0 256;
#X obj 21 50 hsl 90 19 1 20 0 0 empty empty empty -2 -8 0 10 #eeeeee #313130 #111111 0 1;
#X obj 239 79 int;
#X msg 2 -32 1;
#X obj 2 -68 loadbang;
#X obj 17 31 note 0 14 Inter empty 0 17 17 17 0 51 51 51 0 0 clck div;
#X obj 18 -9 a/clock;
#X connect 0 0 13 0;
#X connect 1 0 2 0;
#X connect 1 0 12 0;
#X connect 2 0 1 1;
#X connect 3 0 4 0;
#X connect 4 0 6 0;
#X connect 4 1 5 0;
#X connect 5 0 14 0;
#X connect 6 0 7 0;
#X connect 7 0 8 0;
#X connect 9 0 10 0;
#X connect 10 0 11 0;
#X connect 11 0 1 1;
#X connect 12 0 3 0;
#X connect 13 0 15 0;
#X connect 15 0 1 0;
#X connect 17 0 18 0;
#X connect 18 0 12 1;
#X connect 18 0 16 0;
#X connect 19 0 17 0;
#X connect 20 0 19 0;
#X coords 0 0 1 1 114 36 1 18 33;
