#N canvas 827 239 527 327 12;
#X obj 313 221 sig2float~;
#X obj 322 114 ffdelay~;
#X obj 97 429 bng 25 250 50 0 empty empty empty 17 7 0 10 #333333 #eeeeee #e4e4e4;
#X obj 7 493 outlet trigger;
#X obj 214 376 changed;
#X obj 214 410 sel 1, f 8;
#X obj 185 305 expr if($f1 >= -0.1 && $f1 <= 0.1 && $f2 == 1 \, 1 \, 0), f 29;
#X obj 7 93 tgl 25 0 empty empty empty 0 7 0 10 #333333 #eeeeee #000000 0 1;
#X obj 7 6 scope~ 60 45 256 3 10 -1 1 0 0 0 0 235 238 238 51 51 51 51 51 51 0 empty;
#X obj 473 -3 inlet~ y;
#X obj 200 17 inlet~ x;
#X obj 231 138 ffdelay~;
#X obj 617 493 outlet~ ydelayed;
#X obj 130 493 outlet~ xdelayed, f 17;
#X obj 366 493 outlet velocity;
#X obj 436 411 expr int( ($f1 + 1) * 58.5 + 10 );
#X obj 436 376 sig2float~;
#X obj 7 65 nbx 7 16 1 50 0 1 empty empty steps 0 -5 0 8 #333333 #fbf8ff #000000 1 256;
#X obj 42 93 bng 25 250 50 0 empty empty empty 17 7 0 10 #333333 #c4eeca #e4e4e4;
#N canvas 733 172 450 300 bangdivider 0;
#X obj 11 156 add;
#X floatatom 11 189 5 0 0 0 - - - 0;
#X msg 11 128 1;
#X obj 224 113 nbx 4 18 -1e+37 1e+37 0 0 empty empty empty 0 -8 0 10 #333333 #e4e4e4 #e4e4e4 0 256;
#X obj 193 256 sel 1, f 6;
#X obj 97 7 inlet maxsteps;
#X obj 8 89 inlet bang, f 11;
#X obj 64 165 expr if($f1 >= $f2 \, 1 \, 0);
#X msg 172 58 1;
#X obj 255 287 outlet bang;
#X connect 0 0 1 0;
#X connect 1 0 7 0;
#X connect 2 0 0 0;
#X connect 3 0 4 0;
#X connect 4 0 0 0;
#X connect 4 0 9 0;
#X connect 5 0 7 1;
#X connect 6 0 2 0;
#X connect 7 0 3 0;
#X connect 8 0 7 1;
#X coords 0 0 1 1 102 21 0;
#X restore 109 343 pd bangdivider;
#X obj 313 32 sig~;
#X obj 313 4 r $signaldelay;
#X connect 0 0 6 0;
#X connect 1 0 0 0;
#X connect 1 0 12 0;
#X connect 1 0 8 1;
#X connect 2 0 19 0;
#X connect 4 0 5 0;
#X connect 5 0 2 0;
#X connect 6 0 4 0;
#X connect 7 0 6 1;
#X connect 9 0 1 0;
#X connect 10 0 11 0;
#X connect 11 0 13 0;
#X connect 11 0 16 0;
#X connect 11 0 8 0;
#X connect 15 0 14 0;
#X connect 16 0 15 0;
#X connect 17 0 19 1;
#X connect 18 0 3 0;
#X connect 19 0 18 0;
#X connect 20 0 11 1;
#X connect 20 0 1 1;
#X connect 21 0 20 0;
#X coords 0 0 1 1 74 126 1 0 0;
