#N canvas 827 239 734 565 12;
#X obj -7 -8 cnv 15 125 110 empty empty empty 20 12 0 14 #3db8ac #111111 0;
#X obj 61 34 nbx 4 18 1 100 0 0 empty empty ratio 0 -8 0 10 #e3d9cc #1b1b1b #111111 0 256;
#X obj 5 72 nbx 4 18 0 2000 0 0 empty empty detune 0 -8 0 10 #fff4e5 #1b1b1b #111111 0 256;
#X obj 90 426 osc~, f 7;
#X obj 236 181 *~ 1000;
#X obj 90 671 outlet~;
#X obj 24 166 inlet~ freq;
#X obj 90 246 +~ 0, f 5;
#X obj 90 396 +~, f 5;
#X obj 61 72 nbx 4 18 1 100 0 0 empty empty overdrive 0 -8 0 10 #e3d9cc #1b1b1b #111111 0 256;
#X obj 5 34 nbx 4 18 0 1 0 0 empty empty volume 0 -8 0 10 #5d5953 #ffffff #111111 0 256;
#X msg 32 -64 1;
#X obj 13 -162 loadbang;
#X obj 90 535 overdrive~;
#X obj 470 550 min~ 1;
#X obj 470 574 max~ 0, f 7;
#X obj 438 479 sig~, f 5;
#X obj 90 636 *~, f 5;
#X msg -65 -64 0;
#X obj 470 522 +~, f 5;
#X obj 491 437 note 54 14 Inter empty 0 17 17 17 0 51 51 51 0 0 volume;
#X obj 226 468 min~ 100, f 9;
#X obj 226 494 max~ 1, f 10;
#X obj 284 322 note 0 14 Inter empty 0 17 17 17 0 51 51 51 0 0 overdrive;
#X obj 214 396 sig~, f 5;
#X obj 214 428 +~, f 5;
#X obj 274 404 *~ 100;
#X obj 284 353 inlet~ overdrive[0-1], f 15;
#X obj 236 134 inlet~ modulation;
#X obj 491 210 +~, f 5;
#X obj 449 181 sig~, f 5;
#X obj 491 246 min~ 100;
#X obj 525 98 note 36 14 Inter empty 0 17 17 17 0 51 51 51 0 0 ratio;
#X obj 90 345 *~;
#X obj 502 453 inlet~ volume[0-1];
#X obj 491 271 max~ 1, f 7;
#X obj 491 126 inlet~ ratio[0-100], f 12;
#X connect 1 0 30 0;
#X connect 2 0 7 1;
#X connect 3 0 13 0;
#X connect 4 0 8 1;
#X connect 6 0 7 0;
#X connect 7 0 33 0;
#X connect 8 0 3 0;
#X connect 9 0 24 0;
#X connect 10 0 16 0;
#X connect 11 0 10 0;
#X connect 11 0 9 0;
#X connect 11 0 1 0;
#X connect 12 0 11 0;
#X connect 12 0 18 0;
#X connect 13 0 17 0;
#X connect 14 0 15 0;
#X connect 15 0 17 1;
#X connect 16 0 19 0;
#X connect 17 0 5 0;
#X connect 18 0 2 0;
#X connect 19 0 14 0;
#X connect 21 0 22 0;
#X connect 22 0 13 1;
#X connect 24 0 25 0;
#X connect 25 0 21 0;
#X connect 26 0 25 1;
#X connect 27 0 26 0;
#X connect 28 0 4 0;
#X connect 29 0 31 0;
#X connect 30 0 29 0;
#X connect 31 0 35 0;
#X connect 33 0 8 0;
#X connect 34 0 19 1;
#X connect 35 0 33 1;
#X connect 36 0 29 1;
#X coords 0 0 1 1 116 79 1 0 17;
