#N canvas 0 0 900 600 10;
#X msg 716 -64 0 2 4 5 7 9 11, f 15;
#X msg 862 112 0 1 3 5 6 8 10, f 15;
#X msg 706 427 0 1 5 7 8, f 15;
#X msg 856 427 0 2 3 7 8, f 15;
#X msg 1006 427 0 2 3 7 9, f 15;
#X msg 1156 428 0 2 5 7 9, f 15;
#X obj 9 30 keyboard 15 43 1 0 0 0 $asfdiugnasidng $s-root-index;
#X obj 187 219 outlet noteroot;
#X obj 9 4 else/popmenu 65 20 9 #dfdfdf black \  $r-scale-index $s-scale-index empty empty 0 0 -1 0 0 1 0 0 0 0 0 chromatic ionian dorian phrygian lydian mixolydian aeolian locrian insen hirajoshi kumoi yo majorpen minorpen melminor harminor byzantine neapolitanmin whole halfdim chromatic ionian dorian phrygian lydian mixolydian aeolian locrian insen hirajoshi kumoi yo majorpen minorpen melminor harminor byzantine neapolitanmin whole halfdim;
#X obj 145 -113 print, f 8;
#X obj 145 -150 select 0, f 9;
#X obj 139 -187 r $s-scale-index, f 17;
#X obj 716 -163 r $s-scale-index, f 17;
#X obj 723 15 r $s-scale-index, f 17;
#X obj 852 -163 r $s-scale-index, f 17;
#X obj 997 -166 r $s-scale-index, f 17;
#X obj 1136 -173 r $s-scale-index, f 17;
#X obj 1292 -165 r $s-scale-index, f 17;
#X obj 861 15 r $s-scale-index, f 17;
#X obj 713 305 r $s-scale-index, f 17;
#X obj 844 295 r $s-scale-index, f 17;
#X obj 1003 295 r $s-scale-index, f 17;
#X obj 1156 295 r $s-scale-index, f 17;
#X obj 1032 -11 s $scale, f 10;
#X obj 960 158 s $scale, f 10;
#X obj 942 481 s $scale, f 10;
#X obj 716 -104 bng 25 250 50 0 empty empty empty 17 7 0 10 #333333 #eeeeee #111111;
#X obj 716 77 bng 25 250 50 0 empty empty empty 17 7 0 10 #333333 #eeeeee #111111;
#X obj 853 -99 bng 25 250 50 0 empty empty empty 17 7 0 10 #333333 #eeeeee #111111;
#X obj 994 -107 bng 25 250 50 0 empty empty empty 17 7 0 10 #333333 #eeeeee #111111;
#X obj 1138 -109 bng 25 250 50 0 empty empty empty 17 7 0 10 #333333 #eeeeee #111111;
#X obj 1281 -105 bng 25 250 50 0 empty empty empty 17 7 0 10 #333333 #eeeeee #111111;
#X obj 852 77 bng 25 250 50 0 empty empty empty 17 7 0 10 #333333 #eeeeee #111111;
#X obj 707 375 bng 25 250 50 0 empty empty empty 17 7 0 10 #333333 #eeeeee #111111;
#X obj 847 376 bng 25 250 50 0 empty empty empty 17 7 0 10 #333333 #eeeeee #111111;
#X obj 1010 371 bng 25 250 50 0 empty empty empty 17 7 0 10 #333333 #eeeeee #111111;
#X obj 1150 378 bng 25 250 50 0 empty empty empty 17 7 0 10 #333333 #eeeeee #111111;
#X obj 79 4 else/popmenu 34 20 9 #dfdfdf black \  $r-root-index $scaleroot empty empty 0 0 -1 0 0 1 0 0 0 0 0 C C# D D# E F F# G G# A A# B C C# D D# E F F# G G# A A# B;
#X msg 201 -19 add C C# D D# E F F# G G# A A# B;
#X obj 28 -187 loadbang;
#X obj 9 100 nbx 4 18 -1e+37 1e+37 0 0 empty empty empty 0 -8 0 10 #333333 #eeeeee #111111 0 256;
#X obj 9 171 s $r-root-index, f 16;
#X obj 9 137 - 12, f 6;
#X obj 221 39 inlet noteroot;
#X obj 340 39 inlet scaleidnex;
#X obj 221 164 s $r-root-index, f 16;
#X obj 340 99 s $r-scale-index, f 17;
#X msg 837 -64 0 2 3 5 7 9 10, f 15;
#X msg 982 -64 0 1 3 5 7 8 10, f 15;
#X msg 1125 -64 0 2 4 6 7 9 11, f 17;
#X msg 1283 -73 0 2 4 5 7 9 10, f 16;
#X msg 708 115 0 2 3 5 7 8 10, f 17;
#X obj 568 -139 select 0, f 9;
#X obj 568 -163 r $s-scale-index, f 17;
#X obj 568 -104 bng 25 250 50 0 empty empty empty 17 7 0 10 #333333 #eeeeee #111111;
#X msg 568 -64 0 1 2 3 4 5 6 7 8 9 10 11, f 15;
#X obj 716 -139 select 1, f 9;
#X obj 852 -139 select 2, f 9;
#X obj 997 -142 select 3, f 9;
#X obj 1136 -149 select 4, f 9;
#X obj 1292 -141 select 5, f 9;
#X obj 723 39 select 6, f 9;
#X obj 861 39 select 7, f 9;
#X msg 1341 397 0 2 4 7 9, f 15;
#X msg 1491 397 0 3 5 7 10, f 15;
#X obj 1338 304 r $s-scale-index, f 17;
#X obj 1491 300 r $s-scale-index, f 17;
#X obj 1333 360 bng 25 250 50 0 empty empty empty 17 7 0 10 #333333 #eeeeee #111111;
#X obj 1485 363 bng 25 250 50 0 empty empty empty 17 7 0 10 #333333 #eeeeee #111111;
#X obj 713 328 select 8, f 9;
#X obj 844 319 select 9;
#X obj 1003 319 select 10;
#X obj 1156 319 select 11;
#X obj 1338 328 select 12;
#X obj 1491 324 select 13;
#X obj 767 680 r $s-scale-index, f 17;
#X obj 898 670 r $s-scale-index, f 17;
#X obj 1057 670 r $s-scale-index, f 17;
#X obj 1210 670 r $s-scale-index, f 17;
#X obj 996 856 s $scale, f 10;
#X obj 761 750 bng 25 250 50 0 empty empty empty 17 7 0 10 #333333 #eeeeee #111111;
#X obj 901 751 bng 25 250 50 0 empty empty empty 17 7 0 10 #333333 #eeeeee #111111;
#X obj 1064 746 bng 25 250 50 0 empty empty empty 17 7 0 10 #333333 #eeeeee #111111;
#X obj 1204 753 bng 25 250 50 0 empty empty empty 17 7 0 10 #333333 #eeeeee #111111;
#X msg 760 802 0 1 4 5 7 8 11, f 15;
#X msg 910 802 0 1 3 5 7 8 11, f 15;
#X obj 767 654 note 0 14 Inter empty 0 17 17 17 0 51 51 51 0 0 bynzantine;
#X obj 927 645 note 0 14 Inter empty 0 17 17 17 0 51 51 51 0 0 neapolitan min;
#X obj 1064 645 note 0 14 Inter empty 0 17 17 17 0 51 51 51 0 0 whole tone;
#X obj 1225 639 note 0 14 Inter empty 0 17 17 17 0 51 51 51 0 0 half hole dim;
#X msg 1060 802 0 2 4 6 8 10, f 15;
#X msg 1210 803 0 1 3 4 6 7 9 10, f 15;
#X msg 9 -80 add chromatic ionian dorian phrygian lydian mixolydian aeolian locrian insen hirajoshi kumoi yo majorpen minorpen melminor harminor byzantine neapolitanmin whole halfdim;
#X obj 479 680 r $s-scale-index, f 17;
#X obj 610 670 r $s-scale-index, f 17;
#X obj 473 750 bng 25 250 50 0 empty empty empty 17 7 0 10 #333333 #eeeeee #111111;
#X obj 613 751 bng 25 250 50 0 empty empty empty 17 7 0 10 #333333 #eeeeee #111111;
#X obj 479 703 select 14;
#X obj 610 694 select 15;
#X obj 479 654 note 0 14 Inter empty 0 17 17 17 0 51 51 51 0 0 melminor;
#X obj 639 645 note 0 14 Inter empty 0 17 17 17 0 51 51 51 0 0 harmin;
#X msg 472 802 0 2 3 5 7 9 11, f 15;
#X msg 622 802 0 2 3 5 7 8 11, f 15;
#X obj 767 703 select 16;
#X obj 898 694 select 17;
#X obj 1057 694 select 18;
#X obj 1210 694 select 19;
#X obj 226 99 mod 12, f 8;
#X connect 0 0 23 0;
#X connect 1 0 24 0;
#X connect 2 0 25 0;
#X connect 3 0 25 0;
#X connect 4 0 25 0;
#X connect 5 0 25 0;
#X connect 6 0 40 0;
#X connect 6 0 7 0;
#X connect 10 0 9 0;
#X connect 11 0 10 0;
#X connect 12 0 56 0;
#X connect 13 0 61 0;
#X connect 14 0 57 0;
#X connect 15 0 58 0;
#X connect 16 0 59 0;
#X connect 17 0 60 0;
#X connect 18 0 62 0;
#X connect 19 0 69 0;
#X connect 20 0 70 0;
#X connect 21 0 71 0;
#X connect 22 0 72 0;
#X connect 26 0 0 0;
#X connect 27 0 51 0;
#X connect 28 0 47 0;
#X connect 29 0 48 0;
#X connect 30 0 49 0;
#X connect 31 0 50 0;
#X connect 32 0 1 0;
#X connect 33 0 2 0;
#X connect 34 0 3 0;
#X connect 35 0 4 0;
#X connect 36 0 5 0;
#X connect 38 0 37 0;
#X connect 39 0 92 0;
#X connect 39 0 38 0;
#X connect 40 0 42 0;
#X connect 42 0 41 0;
#X connect 43 0 107 0;
#X connect 44 0 46 0;
#X connect 47 0 23 0;
#X connect 48 0 23 0;
#X connect 49 0 23 0;
#X connect 50 0 23 0;
#X connect 51 0 23 0;
#X connect 52 0 54 0;
#X connect 53 0 52 0;
#X connect 54 0 55 0;
#X connect 56 0 26 0;
#X connect 57 0 28 0;
#X connect 58 0 29 0;
#X connect 59 0 30 0;
#X connect 60 0 31 0;
#X connect 61 0 27 0;
#X connect 62 0 32 0;
#X connect 63 0 25 0;
#X connect 64 0 25 0;
#X connect 65 0 73 0;
#X connect 66 0 74 0;
#X connect 67 0 63 0;
#X connect 68 0 64 0;
#X connect 69 0 33 0;
#X connect 70 0 34 0;
#X connect 71 0 35 0;
#X connect 72 0 36 0;
#X connect 73 0 67 0;
#X connect 74 0 68 0;
#X connect 75 0 103 0;
#X connect 76 0 104 0;
#X connect 77 0 105 0;
#X connect 78 0 106 0;
#X connect 80 0 84 0;
#X connect 81 0 85 0;
#X connect 82 0 90 0;
#X connect 83 0 91 0;
#X connect 84 0 79 0;
#X connect 85 0 79 0;
#X connect 90 0 79 0;
#X connect 91 0 79 0;
#X connect 92 0 8 0;
#X connect 93 0 97 0;
#X connect 94 0 98 0;
#X connect 95 0 101 0;
#X connect 96 0 102 0;
#X connect 97 0 95 0;
#X connect 98 0 96 0;
#X connect 101 0 79 0;
#X connect 102 0 79 0;
#X connect 103 0 80 0;
#X connect 104 0 81 0;
#X connect 105 0 82 0;
#X connect 106 0 83 0;
#X connect 107 0 45 0;
#X coords 0 0 1 1 112 69 1 8 4;
