#N canvas 0 0 900 600 10;
#X msg 849 12 0 2 4 5 7 9 11, f 15;
#X msg 849 132 0 2 3 5 7 8 10, f 16;
#X msg 999 12 0 2 3 5 7 9 10, f 17;
#X text 130 6 Dorian;
#X msg 1149 12 0 1 3 5 7 8 10, f 15;
#X text 224 8 Phrygian;
#X msg 1299 12 0 2 4 6 7 9 11, f 15;
#X text 327 8 Lydian;
#X msg 1437 12 0 2 4 5 7 9 10, f 17;
#X text 440 8 Mixolydian;
#X msg 999 132 0 1 3 5 6 8 10, f 15;
#X text 130 42 Locrian;
#X msg 1149 132 0 2 4 7 9, f 15;
#X msg 1299 132 0 3 5 7 10, f 15;
#X msg 939 220 0 1 5 7 8, f 15;
#X msg 1089 220 0 2 3 7 8, f 15;
#X msg 1239 220 0 2 3 7 9, f 15;
#X msg 1389 220 0 2 5 7 9, f 15;
#X msg 1131 288 0 2 3 5 7 9 11, f 15;
#X msg 1281 288 0 2 3 5 7 8 11, f 15;
#X obj 52 352 s $scale, f 12;
#X obj 8 8 bng 20 250 50 0 empty $ionian empty 17 7 0 10 #333333 #eeeeee #e4e4e4;
#X obj 8 45 bng 20 250 50 0 empty $aeolian empty 17 7 0 10 #333333 #eeeeee #e4e4e4;
#X obj 108 9 bng 20 250 50 0 empty $dorian empty 17 7 0 10 #333333 #eeeeee #e4e4e4;
#X obj 204 9 bng 20 250 50 0 empty $phrygian empty 17 7 0 10 #333333 #eeeeee #e4e4e4;
#X obj 307 11 bng 20 250 50 0 empty $lydian empty 17 7 0 10 #333333 #eeeeee #e4e4e4;
#X obj 307 45 bng 20 250 50 0 empty $minorpen empty 17 7 0 10 #333333 #eeeeee #e4e4e4;
#X obj 204 45 bng 20 250 50 0 empty $majorpen empty 17 7 0 10 #333333 #eeeeee #e4e4e4;
#X obj 107 45 bng 20 250 50 0 empty $locrian empty 17 7 0 10 #333333 #eeeeee #e4e4e4;
#X obj 419 11 bng 20 250 50 0 empty $mixolydian empty 17 7 0 10 #333333 #eeeeee #e4e4e4;
#X obj 8 83 bng 20 250 50 0 empty $insen empty 17 7 0 10 #333333 #eeeeee #e4e4e4;
#X obj 107 83 bng 20 250 50 0 empty $hirajoshi empty 17 7 0 10 #333333 #eeeeee #e4e4e4;
#X obj 204 83 bng 20 250 50 0 empty $kumoi empty 17 7 0 10 #333333 #eeeeee #e4e4e4;
#X obj 307 83 bng 20 250 50 0 empty $yo empty 17 7 0 10 #333333 #eeeeee #e4e4e4;
#X obj 107 119 bng 20 250 50 0 empty $harminor empty 17 7 0 10 #333333 #eeeeee #e4e4e4;
#X obj 8 117 bng 20 250 50 0 empty $melminor empty 17 7 0 10 #333333 #eeeeee #e4e4e4;
#X text 224 42 MajorPen;
#X text 327 42 MinorPen;
#X text 327 80 Yo;
#X text 224 80 Kumoi;
#X text 125 80 Hirajoshi;
#X text 29 80 In Sen, f 8;
#X text 29 116 MelMinor;
#X text 125 116 HarMinor;
#X text 29 6 Ionian;
#X text 29 42 Aeolian;
#X obj 390 399 s $scaleroot;
#X obj 390 376 int;
#X obj 390 89 keyboard 16 80 1 0 1 0 empty empty;
#X obj 246 151 hsl 128 17 1 15 0 0 empty empty empty -2 -8 0 10 #333333 #eeeeee #e4e4e4 0 1;
#X obj 990 491 sel 2, f 6;
#X obj 913 491 sel 1, f 6;
#X obj 920 579 s $ionian;
#X obj 1011 573 s $dorian;
#X obj 913 522 bng 25 250 50 0 empty empty empty 17 7 0 10 #333333 #eeeeee #e4e4e4;
#X obj 990 530 bng 25 250 50 0 empty empty empty 17 7 0 10 #333333 #eeeeee #e4e4e4;
#X obj 1070 426 int;
#X obj 1118 438 nbx 4 18 -1e+37 1e+37 0 0 empty empty empty 0 -8 0 10 #333333 #e4e4e4 #e4e4e4 0 256;
#X obj 1114 548 bng 25 250 50 0 empty empty empty 17 7 0 10 #333333 #eeeeee #e4e4e4;
#X obj 1224 548 bng 25 250 50 0 empty empty empty 17 7 0 10 #333333 #eeeeee #e4e4e4;
#X obj 1339 548 bng 25 250 50 0 empty empty empty 17 7 0 10 #333333 #eeeeee #e4e4e4;
#X obj 1467 541 bng 25 250 50 0 empty empty empty 17 7 0 10 #333333 #eeeeee #e4e4e4;
#X obj 1592 552 bng 25 250 50 0 empty empty empty 17 7 0 10 #333333 #eeeeee #e4e4e4;
#X obj 1710 514 sel 2, f 6;
#X obj 1710 597 s $dorian;
#X obj 1710 553 bng 25 250 50 0 empty empty empty 17 7 0 10 #333333 #eeeeee #e4e4e4;
#X obj 1809 515 sel 2, f 6;
#X obj 1809 598 s $dorian;
#X obj 1809 554 bng 25 250 50 0 empty empty empty 17 7 0 10 #333333 #eeeeee #e4e4e4;
#X obj 1910 512 sel 2, f 6;
#X obj 1910 595 s $dorian;
#X obj 1910 551 bng 25 250 50 0 empty empty empty 17 7 0 10 #333333 #eeeeee #e4e4e4;
#X obj 2013 508 sel 2, f 6;
#X obj 2013 591 s $dorian;
#X obj 2013 547 bng 25 250 50 0 empty empty empty 17 7 0 10 #333333 #eeeeee #e4e4e4;
#X obj 2108 508 sel 2, f 6;
#X obj 2108 591 s $dorian;
#X obj 2108 547 bng 25 250 50 0 empty empty empty 17 7 0 10 #333333 #eeeeee #e4e4e4;
#X obj 2183 503 sel 2, f 6;
#X obj 2183 586 s $dorian;
#X obj 2183 542 bng 25 250 50 0 empty empty empty 17 7 0 10 #333333 #eeeeee #e4e4e4;
#X obj 2273 504 sel 2, f 6;
#X obj 2273 587 s $dorian;
#X obj 2273 543 bng 25 250 50 0 empty empty empty 17 7 0 10 #333333 #eeeeee #e4e4e4;
#X obj 2337 509 sel 2, f 6;
#X obj 2337 592 s $dorian;
#X obj 2337 548 bng 25 250 50 0 empty empty empty 17 7 0 10 #333333 #eeeeee #e4e4e4;
#X obj 1114 592 s $phrygian;
#X obj 1224 592 s $lydian;
#X obj 1339 592 s $mixolydian;
#X obj 1467 585 s $aeolian;
#X obj 1592 596 s $locrian;
#X obj 1114 509 sel 3, f 6;
#X obj 1224 509 sel 4, f 6;
#X obj 1339 509 sel 5, f 6;
#X obj 1467 502 sel 6, f 6;
#X obj 1592 513 sel 7, f 6;
#X connect 0 0 20 0;
#X connect 1 0 20 0;
#X connect 2 0 20 0;
#X connect 4 0 20 0;
#X connect 6 0 20 0;
#X connect 8 0 20 0;
#X connect 10 0 20 0;
#X connect 12 0 20 0;
#X connect 13 0 20 0;
#X connect 14 0 20 0;
#X connect 15 0 20 0;
#X connect 16 0 20 0;
#X connect 17 0 20 0;
#X connect 18 0 20 0;
#X connect 19 0 20 0;
#X connect 21 0 0 0;
#X connect 22 0 1 0;
#X connect 23 0 2 0;
#X connect 24 0 4 0;
#X connect 25 0 6 0;
#X connect 26 0 13 0;
#X connect 27 0 12 0;
#X connect 28 0 10 0;
#X connect 29 0 8 0;
#X connect 30 0 14 0;
#X connect 31 0 15 0;
#X connect 32 0 16 0;
#X connect 33 0 17 0;
#X connect 34 0 19 0;
#X connect 35 0 18 0;
#X connect 47 0 46 0;
#X connect 48 0 47 0;
#X connect 49 0 56 0;
#X connect 50 0 55 0;
#X connect 51 0 54 0;
#X connect 54 0 52 0;
#X connect 55 0 53 0;
#X connect 56 0 57 0;
#X connect 57 0 51 0;
#X connect 57 0 50 0;
#X connect 57 0 92 0;
#X connect 57 0 93 0;
#X connect 57 0 94 0;
#X connect 57 0 95 0;
#X connect 57 0 96 0;
#X connect 58 0 87 0;
#X connect 59 0 88 0;
#X connect 60 0 89 0;
#X connect 61 0 90 0;
#X connect 62 0 91 0;
#X connect 63 0 65 0;
#X connect 65 0 64 0;
#X connect 66 0 68 0;
#X connect 68 0 67 0;
#X connect 69 0 71 0;
#X connect 71 0 70 0;
#X connect 72 0 74 0;
#X connect 74 0 73 0;
#X connect 75 0 77 0;
#X connect 77 0 76 0;
#X connect 78 0 80 0;
#X connect 80 0 79 0;
#X connect 81 0 83 0;
#X connect 83 0 82 0;
#X connect 84 0 86 0;
#X connect 86 0 85 0;
#X connect 92 0 58 0;
#X connect 93 0 59 0;
#X connect 94 0 60 0;
#X connect 95 0 61 0;
#X connect 96 0 62 0;
#X coords 0 0 1 1 513 180 1 0 0;
