#N canvas 100 100 400 300 10;
#X obj 176 13 inlet;
#X obj 176 63 expr $f1 % 12;
#X obj 186 114 select 0 1 2 3 4 5 6 7 8 9 10 11;
#X msg 187 169 C;
#X msg 203 205 C#;
#X msg 221 239 D;
#X msg 238 268 D#;
#X msg 267 304 E;
#X msg 290 346 F;
#X msg 290 239 F#;
#X msg 308 279 G;
#X msg 325 304 G#;
#X msg 344 335 A;
#X msg 360 357 A#;
#X msg 379 397 B;
#X msg 417 175 ?;
#X connect 0 0 1 0 32.................P..........D.........7A....;
#X connect 1 0 2 0 32.................I....n....PB....J....DA....;
#X connect 2 0 3 0 32.................K.........vB.........TA....;
#X connect 2 1 4 0 32.................c.........PG.........jC....;
#X connect 2 2 5 0 32.................t.........fK.........rE....;
#X connect 2 3 6 0 32.................7..........O.........fG....;
#X connect 2 4 7 0 32.................NA...n....fS....J....vI....;
#X connect 2 5 8 0 32.................iA...7....vX....O....XL....;
#X connect 2 6 9 0 32.................t.........fK.........rE....;
#X connect 2 7 10 0 32.................BA........fP.........LH....;
#X connect 2 8 11 0 32.................NA........fS.........vI....;
#X connect 2 9 12 0 32.................dA........fW.........rK....;
#X connect 2 10 13 0 32.................oA........PZ.........DM....;
#X connect 2 11 14 0 32.................8A........Pe.........jO....;
#X connect 2 12 15 0 32.................N....LA...fC....S....rA....;
