#N canvas 827 239 734 565 12;
#X obj 125 131 pic 0 pic2.png $picclick empty 0 0;
#X obj 423 173 r $picclick;
#X obj 423 223 print, f 5;
#X msg 163 91 open pic.png;
#X msg 273 91 open pic2.png;
#X obj 163 35 loadbang;
#X connect 1 0 2 0;
#X connect 3 0 0 0;
#X connect 4 0 0 0;
#X connect 5 0 3 0;
