#N canvas 827 239 734 565 12;
#X obj 127 55 notein;
#X obj 311 230 fmop;
#X obj 45 258 m/adsr;
#A saved 1 1891 2000 848 1 0 0 0 0;
#A saved;
#A saved;
#A saved;
#A saved;
#A saved;
#A saved;
#A saved;
#A saved;
#X obj 311 352 a/vca2;
#X obj 288 173 mtof, f 5;
#X obj 318 446 out~;
#X obj 84 122 nbx 4 18 -1e+37 1e+37 0 0 empty empty empty 0 -8 0 10 #333333 #eeeeee #111111 0 256;
#X obj 84 151 sel 127;
#X obj 447 230 fmop;
#X connect 0 0 4 0;
#X connect 0 1 6 0;
#X connect 1 0 3 0;
#X connect 2 0 3 2;
#X connect 3 0 5 0;
#X connect 3 0 5 1;
#X connect 4 0 1 0;
#X connect 4 0 8 0;
#X connect 6 0 7 0;
#X connect 7 0 2 0;
#X connect 8 0 1 1;
