#N canvas 827 239 734 565 12;
#X obj 615 -70 a/vca2;
#X obj 602 -435 a/clock;
#N canvas 733 172 450 300 (subpatch) 0;
#X msg 251 128 seed 123, f 9;
#X obj 107 13 bng 19 250 50 0 empty empty empty 17 7 0 10 #dfdfdf #000000 #000000;
#X obj 238 164 random 80, f 13;
#X obj 19 173 +, f 5;
#X obj 57 13 nbx 4 18 -1e+37 1e+37 0 0 empty empty + 0 -8 0 10 #e4e4e4 #272727 #111111 0 256;
#X obj 2 13 nbx 4 18 -1e+37 1e+37 0 0 empty empty max 0 -8 0 10 #d9e4d4 #2f2f2f #111111 0 256;
#X obj 235 -41 inlet;
#X obj 19 229 outlet;
#X obj 96 -5 note 55 14 DotGothic16 empty 0 17 17 17 0 51 51 51 0 0 rand;
#X connect 0 0 2 0;
#X connect 1 0 2 0;
#X connect 2 0 3 0;
#X connect 3 0 7 0;
#X connect 4 0 3 1;
#X connect 5 0 2 1;
#X connect 6 0 1 0;
#X coords 0 0 1 1 127 32 1 0 0;
#X restore 615 -343 pd;
#X obj 1018 65 mix4~;
#X obj 884 -145 fmop;
#X obj 850 -36 a/scope;
#X obj 657 -275 global-quantizer, f 15;
#X obj 657 -249 mtof, f 5;
#X obj 532 -215 adsr.m~;
#A saved 1 1 2000 1 0 0 0 0 0;
#A saved;
#A saved;
#A saved;
#A saved;
#A saved;
#A saved;
#A saved;
#A saved;
#X obj 319 -308 adsr.m~;
#A saved 1 1 2000 1 2 0 0 0 0;
#A saved;
#A saved;
#A saved;
#A saved;
#A saved;
#A saved;
#A saved;
#A saved;
#X obj 532 -108 scope~ 43 69 2 3 10 -1 1 0 0 0 0 238 238 238 51 51 51 105 105 105 0 empty;
#N canvas 733 172 450 300 (subpatch) 0;
#X msg 251 128 seed 123, f 9;
#X obj 107 13 bng 19 250 50 0 empty empty empty 17 7 0 10 #dfdfdf #000000 #000000;
#X obj 238 164 random 80, f 13;
#X obj 19 173 +, f 5;
#X obj 57 13 nbx 4 18 -1e+37 1e+37 0 0 empty empty + 0 -8 0 10 #e4e4e4 #272727 #111111 0 256;
#X obj 2 13 nbx 4 18 -1e+37 1e+37 0 0 empty empty max 0 -8 0 10 #d9e4d4 #2f2f2f #111111 0 256;
#X obj 235 -41 inlet;
#X obj 19 229 outlet;
#X obj 96 -5 note 55 14 DotGothic16 empty 0 17 17 17 0 51 51 51 0 0 rand;
#X connect 0 0 2 0;
#X connect 1 0 2 0;
#X connect 2 0 3 0;
#X connect 3 0 7 0;
#X connect 4 0 3 1;
#X connect 5 0 2 1;
#X connect 6 0 1 0;
#X coords 0 0 1 1 127 32 1 0 0;
#X restore 1082 -262 pd;
#X obj 1082 -215 global-quantizer, f 15;
#X obj 1082 -189 mtof, f 5;
#X obj 1026 -158 fmop;
#X obj 1026 0 a/vca2;
#N canvas 733 172 450 300 (subpatch) 0;
#X msg 251 128 seed 123, f 9;
#X obj 107 13 bng 19 250 50 0 empty empty empty 17 7 0 10 #dfdfdf #000000 #000000;
#X obj 238 164 random 80, f 13;
#X obj 19 173 +, f 5;
#X obj 57 13 nbx 4 18 -1e+37 1e+37 0 0 empty empty + 0 -8 0 10 #e4e4e4 #272727 #111111 0 256;
#X obj 2 13 nbx 4 18 -1e+37 1e+37 0 0 empty empty max 0 -8 0 10 #c4e4b7 #2f2f2f #111111 0 256;
#X obj 235 -41 inlet;
#X obj 19 229 outlet;
#X obj 96 -5 note 55 14 DotGothic16 empty 0 17 17 17 0 51 51 51 0 0 rand;
#X connect 0 0 2 0;
#X connect 1 0 2 0;
#X connect 2 0 3 0;
#X connect 3 0 7 0;
#X connect 4 0 3 1;
#X connect 5 0 2 1;
#X connect 6 0 1 0;
#X coords 0 0 1 1 127 32 1 0 0;
#X restore 1303 -262 pd;
#X obj 1303 -215 global-quantizer, f 15;
#X obj 1303 -189 mtof, f 5;
#X obj 1247 -149 fmop;
#X obj 1247 24 a/vca2;
#X obj 1382 -56 delay~ 1500;
#X obj 1118 -54 delay~ 700;
#X obj 1006 -70 a/scope;
#X obj 1247 -56 a/scope;
#X obj 1026 215 out~;
#X obj 1477 -282 a/basic-lfo;
#X obj 1310 -367 randommodule;
#X connect 0 0 3 0;
#X connect 1 0 2 0;
#X connect 1 0 8 0;
#X connect 1 0 9 0;
#X connect 1 0 11 0;
#X connect 1 0 16 0;
#X connect 2 0 6 0;
#X connect 3 0 25 0;
#X connect 4 0 0 0;
#X connect 4 0 5 0;
#X connect 6 0 7 0;
#X connect 7 0 4 0;
#X connect 8 0 0 2;
#X connect 8 0 10 0;
#X connect 8 0 22 0;
#X connect 8 0 21 0;
#X connect 9 0 4 3;
#X connect 11 0 12 0;
#X connect 12 0 13 0;
#X connect 13 0 14 0;
#X connect 14 0 15 0;
#X connect 14 0 23 0;
#X connect 15 0 3 1;
#X connect 16 0 17 0;
#X connect 17 0 18 0;
#X connect 18 0 19 0;
#X connect 19 0 20 0;
#X connect 19 0 24 0;
#X connect 20 0 3 2;
#X connect 21 0 20 2;
#X connect 22 0 15 2;
#X connect 26 0 19 2;
