#N canvas 827 239 527 327 12;
#X obj 7 5 scaleset;
#X obj 28 501 notein 1;
#X obj 59 658 noteout;
#X obj 259 532 r $scale, f 10;
#X obj 201 498 r $scaleroot;
#X obj 28 592 mscale;
#X obj 449 583 s $scaleroot;
#X obj 449 560 int;
#X obj 28 136 keyboard 16 80 1 0 1 0 empty empty;
#X connect 1 0 5 0;
#X connect 1 1 2 1;
#X connect 3 0 5 2;
#X connect 4 0 5 1;
#X connect 5 0 2 0;
#X connect 7 0 6 0;
#X connect 8 0 7 0;
