#N canvas 827 239 527 327 12;
#X obj 347 279 globalscale-setter;
#X obj 430 506 notein;
#X obj 430 592 noteout;
#X obj 508 553 global-quantizer;
#X obj 900 467 hsl 128 17 1 15 0 0 empty empty empty -2 -8 0 10 #333333 #eeeeee #e4e4e4 0 1;
#X obj 817 559 sel 2, f 6;
#X obj 740 559 sel 1, f 6;
#X obj 747 647 s $ionian;
#X obj 838 641 s $dorian;
#X obj 740 590 bng 25 250 50 0 empty empty empty 17 7 0 10 #333333 #eeeeee #e4e4e4;
#X obj 817 598 bng 25 250 50 0 empty empty empty 17 7 0 10 #333333 #eeeeee #e4e4e4;
#X obj 897 494 int;
#X obj 945 506 nbx 4 18 -1e+37 1e+37 0 0 empty empty empty 0 -8 0 10 #333333 #e4e4e4 #e4e4e4 0 256;
#X connect 1 0 3 0;
#X connect 1 1 2 1;
#X connect 1 2 2 2;
#X connect 3 0 2 0;
#X connect 4 0 11 0;
#X connect 5 0 10 0;
#X connect 6 0 9 0;
#X connect 9 0 7 0;
#X connect 10 0 8 0;
#X connect 11 0 12 0;
#X connect 12 0 6 0;
#X connect 12 0 5 0;
