#N canvas 337 91 627 405 12;
#X declare -path else;
#N canvas 243 43 657 455 preset 0;
#X obj 125 121 else/sender 1 \\\$0-presets;
#X msg 125 86 name \$1;
#X obj 90 171 else/receiver;
#X obj 123 220 route list;
#N canvas 468 182 491 352 id-name-init 0;
#X obj 165 113 + 1;
#X obj 257 100 else/dollsym 1;
#X obj 141 80 value;
#X obj 141 252 outlet;
#X obj 141 51 else/loadbanger 2;
#X obj 141 201 else/dollsym 1;
#X obj 257 76 symbol vca-id_\\\$0;
#X obj 141 166 else/format symbol \\\$0-vca-%d;
#X connect 0 0 2 0;
#X connect 1 0 2 1;
#X connect 2 0 0 0;
#X connect 2 0 7 0;
#X connect 4 0 2 0;
#X connect 4 1 6 0;
#X connect 5 0 3 0;
#X connect 6 0 1 0;
#X connect 7 0 5 0;
#X restore 90 39 pd id-name-init;
#X obj 90 321 else/var \$0-bpm \$0-mul \$0-run \$0-step1 \$0-step2 \$0-step3 \$0-step4 \$0-step5 \$0-step6 \$0-step7 \$0-step8;
#X obj 123 258 else/dispatch \$0-set-bpm \$0-set-mul \$0-set-run \$0-set-step1 \$0-set-step2 \$0-set-step3 \$0-set-step4 \$0-set-step5 \$0-set-step6 \$0-set-step7 \$0-set-step8, f 51;
#X connect 1 0 0 0;
#X connect 2 0 3 0;
#X connect 2 0 5 0;
#X connect 3 0 6 0;
#X connect 4 0 1 0;
#X connect 4 0 2 0;
#X restore 337 347 pd preset;
#N canvas 724 353 601 317 init-savestate 0;
#X obj 74 87 savestate;
#X obj 338 174 declare -path else;
#X obj 49 125 list;
#X obj 49 43 loadbang;
#X obj 49 171 else/default 60 4 0 0 0 0 0 0 0 0 0;
#X obj 49 222 else/dispatch \$0-set-bpm \$0-set-mul \$0-set-run \$0-set-step1 \$0-set-step2 \$0-set-step3 \$0-set-step4 \$0-set-step5 \$0-set-step6 \$0-set-step7 \$0-set-step8;
#X obj 134 119 else/var \$0-bpm \$0-mul \$0-run \$0-step1 \$0-step2 \$0-step3 \$0-step4 \$0-step5 \$0-step6 \$0-step7 \$0-step8;
#X connect 0 0 2 1;
#X connect 0 1 6 0;
#X connect 2 0 4 0;
#X connect 3 0 2 0;
#X connect 4 0 5 0;
#X connect 6 0 0 0;
#X restore 279 314 pd init-savestate;
#N canvas 200 115 347 203 GUI 0;
#X restore 277 347 pd GUI;
#N canvas 227 82 591 511 (subpatch) 0;
#X obj 112 112 cnv 15 340 140 empty empty empty 20 12 0 14 #556565 #373737 0;
#X obj 123 154 cnv 19 318 38 empty empty empty 20 12 0 12 #ffffff #404040 0;
#X obj 121 222 tgl 25 0 \$0-run \$0-set-run empty 0 -10 0 12 #202020 #ffffff #ffffff 0 1;
#X text 148 223 RUN;
#X obj 186 222 bng 25 250 50 0 \$0-reset \$0-set-reset empty 0 -5 0 12 #000000 #ffffff #000000;
#X text 219 220 Reset;
#X obj 135 196 bng 15 100 100 0 \$0-b1 \$0-set-b1 empty 0 -10 0 12 #202020 #ff0400 #000000;
#X obj 175 196 bng 15 100 100 0 \$0-b2 \$0-set-b2 empty 0 -10 0 12 #202020 #ff0400 #000000;
#X obj 215 196 bng 15 100 100 0 \$0-b3 \$0-set-b3 empty 0 -10 0 12 #202020 #ff0400 #000000;
#X obj 255 196 bng 15 100 100 0 \$0-b4 \$0-set-b4 empty 0 -10 0 12 #202020 #ff0400 #000000;
#X obj 295 196 bng 15 100 100 0 \$0-b5 \$0-set-b5 empty 0 -10 0 12 #202020 #ff0400 #000000;
#X obj 335 196 bng 15 100 100 0 \$0-b6 \$0-set-b6 empty 0 -10 0 12 #202020 #ff0400 #000000;
#X obj 376 196 bng 15 100 100 0 \$0-b7 \$0-set-b7 empty 0 -10 0 12 #202020 #ff0400 #000000;
#X obj 420 196 bng 15 100 100 0 \$0-b8 \$0-set-b8 empty 0 -10 0 12 #202020 #ff0400 #000000;
#X obj 121 156 vsl 40 35 0 1 0 0 \$0-step1 \$0-set-step1 empty 0 -9 0 10 #333333 #eeeeee #e4e4e4 0 0;
#X obj 162 156 vsl 40 35 0 1 0 0 \$0-step2 \$0-set-step2 empty 0 -9 0 10 #333333 #eeeeee #e4e4e4 0 0;
#X obj 203 156 vsl 40 35 0 1 0 0 \$0-step3 \$0-set-step3 empty 0 -9 0 10 #333333 #eeeeee #e4e4e4 0 0;
#X obj 244 156 vsl 40 35 0 1 0 0 \$0-step4 \$0-set-step4 empty 0 -9 0 10 #333333 #eeeeee #e4e4e4 0 0;
#X obj 285 156 vsl 40 35 0 1 0 0 \$0-step5 \$0-set-step5 empty 0 -9 0 10 #333333 #eeeeee #e4e4e4 0 0;
#X obj 326 156 vsl 40 35 0 1 0 0 \$0-step6 \$0-set-step6 empty 0 -9 0 10 #333333 #eeeeee #e4e4e4 0 0;
#X obj 367 156 vsl 40 35 0 1 0 0 \$0-step7 \$0-set-step7 empty 0 -9 0 10 #333333 #eeeeee #e4e4e4 0 0;
#X obj 407 156 vsl 40 35 0 1 0 0 \$0-step8 \$0-set-step8 empty 0 -9 0 10 #333333 #eeeeee #e4e4e4 0 0;
#X coords 0 1 100 -1 342 142 1 111 111;
#X restore 207 133 graph;
#N canvas 130 117 751 594 seq 0;
#X obj 176 236 v;
#X obj 239 236 list.seq \$0-step1 \$0-step2 \$0-step3 \$0-step4 \$0-step5 \$0-step6 \$0-step7 \$0-step8, f 44;
#X obj 176 195 t b b;
#X msg 239 199 goto 1;
#X obj 239 168 r \$0-reset;
#X obj 176 303 outlet;
#X obj 239 284 sel \$0-step1 \$0-step2 \$0-step3 \$0-step4 \$0-step5 \$0-step6 \$0-step7 \$0-step8, f 39;
#X obj 296 527 s \$0-set-b1;
#X obj 384 512 s \$0-set-b2;
#X obj 475 494 s \$0-set-b3;
#X obj 536 460 s \$0-set-b4;
#X obj 574 417 s \$0-set-b5;
#X obj 637 380 s \$0-set-b6;
#X obj 637 347 s \$0-set-b7;
#X obj 637 303 s \$0-set-b8;
#X obj 901 241 select;
#X obj 885 301 bng 25 250 50 0 empty empty empty 17 7 0 10 #333333 #eeeeee #e4e4e4;
#X obj 935 190 r \$0-maxsteps;
#X obj 800 190 r \$0-currentstep;
#X msg 154 683 1;
#X obj 154 709 s \$0-currentstep;
#X obj 296 709 s \$0-currentstep;
#X obj 438 709 s \$0-currentstep;
#X obj 574 709 s \$0-currentstep;
#X obj 154 778 s \$0-currentstep;
#X obj 296 778 s \$0-currentstep;
#X obj 438 778 s \$0-currentstep;
#X obj 574 778 s \$0-currentstep;
#X msg 296 683 2;
#X msg 438 683 3;
#X msg 574 683 4;
#X msg 154 752 5;
#X msg 296 752 6;
#X msg 438 752 7;
#X msg 574 752 8;
#X obj 73 19 inlet triggerbang;
#X obj 154 69 r \$0-run;
#X obj 272 113 print;
#X obj 111 122 == 1, f 5;
#X obj 171 156 sel 1, f 6;
#X obj 888 342 s \$0-reset;
#X obj 967 342 s \$0-set-reset;
#X connect 0 0 5 0;
#X connect 1 0 0 1;
#X connect 1 0 6 0;
#X connect 2 0 0 0;
#X connect 2 1 1 0;
#X connect 3 0 1 0;
#X connect 4 0 3 0;
#X connect 6 0 7 0;
#X connect 6 0 19 0;
#X connect 6 1 8 0;
#X connect 6 1 28 0;
#X connect 6 2 9 0;
#X connect 6 2 29 0;
#X connect 6 3 10 0;
#X connect 6 3 30 0;
#X connect 6 4 11 0;
#X connect 6 4 31 0;
#X connect 6 5 12 0;
#X connect 6 5 32 0;
#X connect 6 6 13 0;
#X connect 6 6 33 0;
#X connect 6 7 14 0;
#X connect 6 7 34 0;
#X connect 15 0 16 0;
#X connect 16 0 40 0;
#X connect 16 0 41 0;
#X connect 17 0 15 1;
#X connect 18 0 15 0;
#X connect 19 0 20 0;
#X connect 28 0 21 0;
#X connect 29 0 22 0;
#X connect 30 0 23 0;
#X connect 31 0 24 0;
#X connect 32 0 25 0;
#X connect 33 0 26 0;
#X connect 34 0 27 0;
#X connect 35 0 38 0;
#X connect 36 0 37 0;
#X connect 36 0 38 1;
#X connect 38 0 39 0;
#X connect 39 0 2 0;
#X restore 95 133 pd seq;
#N canvas 203 105 568 377 route 0;
#X obj 60 61 inlet;
#X obj 129 253 s \$0-set-reset;
#X obj 115 281 s \$0-set-run;
#X obj 154 227 s \$0-set-bpm;
#X obj 171 198 s \$0-set-mul;
#X obj 60 95 route run reset bpm mul set;
#X obj 207 132 else/dispatch \$0-set-step1 \$0-set-step2 \$0-set-step3 \$0-set-step4 \$0-set-step5 \$0-set-step6 \$0-set-step7 \$0-set-step8, f 39;
#X connect 0 0 5 0;
#X connect 5 0 2 0;
#X connect 5 1 1 0;
#X connect 5 2 3 0;
#X connect 5 3 4 0;
#X connect 5 4 6 0;
#X restore 248 36 pd route;
#X obj 572 299 inlet reset;
#X obj 521 459 s \$0-maxsteps;
#X obj 773 347 r \$0-currentstep;
#X obj 742 482 int;
#X obj 86 87 inlet trigger;
#X obj 27 446 mtof;
#X obj 773 421 outlet step;
#X obj 64 392 int;
#X obj 64 288 * 127;
#X obj 64 326 max 1;
#X obj 432 247 nbx 4 18 0 1 0 0 empty empty range- 0 -8 0 10 #333333 #eeeeee #111111 0 256;
#X obj 487 247 nbx 4 18 0 1 0 0 empty empty range+ 0 -8 0 10 #333333 #eeeeee #111111 0 256;
#X obj -2 239 expr ($f1 * ($f3 - $f2)) + $f2;
#X obj 207 61 loadbang;
#X msg 205 89 0;
#X msg 232 89 1;
#X obj 223 460 sig~;
#X obj 360 494 outlet midinote;
#X obj 207 494 outlet~ rawvalue[0-1];
#X obj 17 494 outlet~ quantizednote;
#X obj 376 247 nbx 4 18 1 8 0 0 empty empty max 0 -8 0 10 #333333 #eeeeee #111111 0 256;
#X obj 656 170 change;
#X obj 671 222 s \$0-reset;
#X obj 662 378 outlet reset;
#X obj 674 331 r \$0-reset;
#X obj 572 347 s \$0-reset;
#X msg 261 89 8;
#X obj 506 397 s \$0-set-reset;
#X connect 4 0 18 0;
#X connect 4 0 22 0;
#X connect 6 0 31 0;
#X connect 6 0 33 0;
#X connect 8 0 12 0;
#X connect 9 0 7 0;
#X connect 10 0 4 0;
#X connect 11 0 25 0;
#X connect 13 0 11 0;
#X connect 13 0 23 0;
#X connect 14 0 15 0;
#X connect 15 0 13 0;
#X connect 16 0 18 1;
#X connect 17 0 18 2;
#X connect 18 0 14 0;
#X connect 19 0 20 0;
#X connect 19 0 21 0;
#X connect 19 0 32 0;
#X connect 20 0 16 0;
#X connect 21 0 17 0;
#X connect 22 0 24 0;
#X connect 26 0 27 0;
#X connect 26 0 9 0;
#X connect 27 0 28 0;
#X connect 30 0 29 0;
#X connect 32 0 26 0;
#X coords 0 1 100 -1 325 99 2 217 176;
