#N canvas 827 239 527 327 12;
#X obj 196 385 fm~;
#X obj 229 334 numbox~ 4 15 100 #333333 #EEEEEE 10 0 0 0;
#X obj 258 356 numbox~ 4 15 100 #333333 #EEEEEE 10 0 0 0;
#X obj 196 310 numbox~ 4 14 100 #333333 #EEEEEE 10 0 2 1;
#X obj 960 492 s $scaleroot;
#X obj 364 355 s $signaldelay;
#X obj 960 469 int;
#X obj 960 381 keyboard 16 80 1 0 1 0 empty empty;
#X obj 38 385 fm~;
#X obj 71 334 numbox~ 4 15 100 #333333 #EEEEEE 10 0 0 0;
#X obj 100 356 numbox~ 4 15 100 #333333 #EEEEEE 10 0 0 0;
#X obj 38 310 numbox~ 4 14 100 #333333 #EEEEEE 10 0 2 1;
#X obj 377 279 numbox~ 9 24 100 #333333 #EEEEEE 10 0 2 1;
#X obj 377 322 sig2float~;
#X obj 71 442 delay_sequencer_unit;
#X obj 153 442 delay_sequencer_unit;
#X obj 236 442 delay_sequencer_unit;
#X obj 318 442 delay_sequencer_unit;
#X obj 399 442 delay_sequencer_unit;
#X obj 481 442 delay_sequencer_unit;
#X obj 564 442 delay_sequencer_unit;
#X obj 646 442 delay_sequencer_unit;
#X obj 71 585 spiral_fader;
#X obj 153 585 spiral_fader;
#X obj 238 585 spiral_fader;
#X obj 318 585 spiral_fader;
#X obj 399 585 spiral_fader;
#X obj 481 585 spiral_fader;
#X obj 564 585 spiral_fader;
#X obj 640 585 spiral_fader;
#X obj 960 540 scaleset;
#X connect 0 0 14 1;
#X connect 1 0 0 1;
#X connect 2 0 0 2;
#X connect 3 0 0 0;
#X connect 6 0 4 0;
#X connect 7 0 6 0;
#X connect 8 0 14 0;
#X connect 9 0 8 1;
#X connect 10 0 8 2;
#X connect 11 0 8 0;
#X connect 12 0 13 0;
#X connect 13 0 5 0;
#X connect 14 0 22 0;
#X connect 14 1 15 0;
#X connect 14 2 22 2;
#X connect 14 3 15 1;
#X connect 15 0 23 0;
#X connect 15 1 16 0;
#X connect 15 2 23 2;
#X connect 15 3 16 1;
#X connect 16 0 24 0;
#X connect 16 1 17 0;
#X connect 16 2 24 2;
#X connect 16 3 17 1;
#X connect 17 0 25 0;
#X connect 17 1 18 0;
#X connect 17 2 25 2;
#X connect 17 3 18 1;
#X connect 18 0 26 0;
#X connect 18 1 19 0;
#X connect 18 2 26 2;
#X connect 18 3 19 1;
#X connect 19 0 27 0;
#X connect 19 1 20 0;
#X connect 19 2 27 2;
#X connect 19 3 20 1;
#X connect 20 0 28 0;
#X connect 20 1 21 0;
#X connect 20 2 28 2;
#X connect 20 3 21 1;
#X connect 21 0 29 0;
#X connect 21 2 29 2;
