#N canvas 827 239 527 327 12;
#X obj 5 8 vsl 46 59 0 11 0 0 empty empty empty 0 -9 0 10 #333333 #eeeeee #e4e4e4 0 1;
#X obj 181 456 noteout 1;
#X obj 200 396 inlet velocity;
#X obj 150 100 r $scale, f 10;
#X obj 126 58 r $scaleroot;
#X obj 66 153 mscale;
#X obj 79 299 *;
#X obj 75 334 nbx 5 21 -1e+37 1e+37 0 0 empty empty empty 0 -8 0 10 #333333 #e4e4e4 #e4e4e4 0 256;
#X obj 126 387 +;
#X msg 55 261 12;
#X obj 42 209 bng 25 250 50 0 empty empty empty 17 7 0 10 #333333 #eeeeee #e4e4e4;
#X obj 198 276 int;
#X obj 200 309 nbx 4 18 -1e+37 1e+37 0 0 empty empty empty 0 -8 0 10 #333333 #e4e4e4 #e4e4e4 0 256;
#X obj -11 -87 inlet note;
#X obj 64 -72 inlet octave;
#X floatatom 54 54 0 1 8 0 - - - 12;
#X connect 0 0 5 0;
#X connect 2 0 1 1;
#X connect 3 0 5 2;
#X connect 4 0 5 1;
#X connect 5 0 10 0;
#X connect 5 0 8 0;
#X connect 6 0 7 0;
#X connect 7 0 8 1;
#X connect 8 0 1 0;
#X connect 9 0 6 0;
#X connect 10 0 9 0;
#X connect 11 0 12 0;
#X connect 12 0 6 1;
#X connect 13 0 0 0;
#X connect 14 0 15 0;
#X connect 15 0 11 0;
#X coords 0 0 1 1 81 79 2 0 0;
