#N canvas 827 239 527 327 12;
#X obj 374 173 osc~;
#X obj 352 74 numbox~ 4 15 100 #333333 #EEEEEE 10 0 0 0;
#X obj 561 356 osc~;
#X obj 630 112 numbox~ 4 15 100 #333333 #EEEEEE 10 0 0 0;
#X obj 781 356 osc~;
#X obj 836 112 numbox~ 4 15 100 #333333 #EEEEEE 10 0 0 0;
#X obj 583 145 /~;
#X obj 785 160 /~;
#X obj 352 243 a/vca;
#X obj 553 393 a/vca;
#X obj 755 397 a/vca;
#X obj 561 180 +~;
#X obj 759 193 +~;
#X obj 785 251 a/4to1-switch;
#X obj 577 243 a/4to1-switch;
#X obj 554 525 outlet~;
#X obj 376 39 inlet~;
#X connect 0 0 8 0;
#X connect 1 0 0 0;
#X connect 1 0 6 0;
#X connect 1 0 7 0;
#X connect 1 0 11 0;
#X connect 1 0 12 0;
#X connect 2 0 9 0;
#X connect 3 0 6 1;
#X connect 4 0 10 0;
#X connect 5 0 7 1;
#X connect 6 0 11 1;
#X connect 6 0 14 1;
#X connect 7 0 12 1;
#X connect 7 0 13 1;
#X connect 8 0 15 0;
#X connect 9 0 15 0;
#X connect 10 0 15 0;
#X connect 11 0 14 0;
#X connect 12 0 13 0;
#X connect 13 0 4 0;
#X connect 14 0 2 0;
#X connect 16 0 1 0;
