#N canvas 827 239 734 565 12;
#X obj 384 224 osc~, f 5;
#X obj 384 139 numbox~ 4 15 100 #333333 #EEEEEE 10 0 0 0;
#X obj 580 363 osc~, f 6;
#X obj 653 167 numbox~ 4 15 100 #333333 #EEEEEE 10 0 0 0;
#X obj 520 418 +~, f 5;
#X obj 612 212 /~, f 5;
#X obj 634 256 +~, f 5;
#X obj 736 363 osc~, f 6;
#X obj 809 167 numbox~ 4 15 100 #333333 #EEEEEE 10 0 0 0;
#X obj 768 212 /~, f 5;
#X obj 790 256 +~, f 5;
#X obj 636 435 +~, f 5;
#X obj 653 534 outlet~, f 7;
#X connect 0 0 4 0;
#X connect 1 0 0 0;
#X connect 1 0 5 0;
#X connect 1 0 6 1;
#X connect 1 0 9 0;
#X connect 1 0 10 1;
#X connect 2 0 4 1;
#X connect 3 0 5 1;
#X connect 4 0 11 0;
#X connect 5 0 6 0;
#X connect 6 0 2 0;
#X connect 7 0 11 1;
#X connect 8 0 9 1;
#X connect 9 0 10 0;
#X connect 10 0 7 0;
#X connect 11 0 12 0;
