#N canvas 0 22 865 551 10;
#X obj 395 234 inlet~;
#X obj 287 364 f;
#X obj 317 364 + 1;
#X obj 287 422 sel 0;
#X obj 287 444 t b b;
#X obj 104 154 bng 15 50 50 0 empty empty /3 0 -8 0 10 #fcfcfc #dc4c90 #000000;
#X msg 287 490 1 0 \, 0 1 1;
#X obj 287 512 vline~;
#X obj 287 534 outlet~;
#X obj 376 364 f;
#X obj 406 364 + 1;
#X obj 376 419 sel 0;
#X obj 376 441 t b b;
#X obj 143 154 bng 15 50 50 0 empty empty /5 0 -8 0 10 #fcfcfc #dc4c90 #000000;
#X msg 376 487 1 0 \, 0 1 1;
#X obj 376 509 vline~;
#X obj 376 531 outlet~;
#X obj 611 303 loadbang;
#X msg 611 325 0;
#X obj 611 347 t f f f f;
#X obj 467 364 f;
#X obj 497 364 + 1;
#X obj 467 413 sel 0;
#X obj 467 435 t b b;
#X obj 192 154 bng 15 50 50 0 empty empty /7 0 -8 0 10 #fcfcfc #dc4c90 #000000;
#X msg 467 481 1 0 \, 0 1 1;
#X obj 467 503 vline~;
#X obj 467 525 outlet~;
#X obj 551 364 f;
#X obj 581 364 + 1;
#X obj 551 409 sel 0;
#X obj 551 431 t b b;
#X obj 230 154 bng 15 50 50 0 empty empty /9 0 -8 0 10 #fcfcfc #dc4c90 #000000;
#X msg 551 477 1 0 \, 0 1 1;
#X obj 551 499 vline~;
#X obj 551 521 outlet~;
#X obj 395 276 t b b b b b;
#X obj 105 108 cnv 5 5 5 empty empty IN 0 0 0 8 #fcfcfc #dc4c90 0;
#X obj 287 400 % 3;
#X obj 376 397 % 5;
#X obj 467 391 % 7;
#X obj 551 387 % 9;
#X obj 395 256 threshold~ 0.9 0 0.9 0;
#X obj 65 271 outlet "3";
#X obj 75 306 outlet "5";
#X obj 83 347 outlet "7";
#X obj 113 401 outlet "9";
#X connect 0 0 42 0;
#X connect 1 0 2 0;
#X connect 1 0 38 0;
#X connect 2 0 1 1;
#X connect 3 0 4 0;
#X connect 4 0 6 0;
#X connect 4 1 5 0;
#X connect 5 0 43 0;
#X connect 6 0 7 0;
#X connect 7 0 8 0;
#X connect 9 0 10 0;
#X connect 9 0 39 0;
#X connect 10 0 9 1;
#X connect 11 0 12 0;
#X connect 12 0 14 0;
#X connect 12 1 13 0;
#X connect 13 0 44 0;
#X connect 14 0 15 0;
#X connect 15 0 16 0;
#X connect 17 0 18 0;
#X connect 18 0 19 0;
#X connect 19 0 1 1;
#X connect 19 1 9 1;
#X connect 19 2 20 1;
#X connect 19 3 28 1;
#X connect 20 0 21 0;
#X connect 20 0 40 0;
#X connect 21 0 20 1;
#X connect 22 0 23 0;
#X connect 23 0 25 0;
#X connect 23 1 24 0;
#X connect 24 0 45 0;
#X connect 25 0 26 0;
#X connect 26 0 27 0;
#X connect 28 0 29 0;
#X connect 28 0 41 0;
#X connect 29 0 28 1;
#X connect 30 0 31 0;
#X connect 31 0 33 0;
#X connect 31 1 32 0;
#X connect 32 0 46 0;
#X connect 33 0 34 0;
#X connect 34 0 35 0;
#X connect 36 0 1 0;
#X connect 36 1 9 0;
#X connect 36 2 20 0;
#X connect 36 3 28 0;
#X connect 38 0 3 0;
#X connect 39 0 11 0;
#X connect 40 0 22 0;
#X connect 41 0 30 0;
#X connect 42 0 36 0;
#X coords 0 -1 1 1 151 39 2 98 136;
