#N canvas 0 22 661 535 10;
#X obj 103 211 inlet~;
#X obj 103 318 tabwrite~ \$0-scope;
#X obj 250 71 cnv 5 5 5 empty empty OSCILLOSCOPE 0 0 0 12 #fcfcfc #404040 0;
#X obj 227 71 cnv 5 5 5 empty empty IN 0 0 0 8 #fcfcfc #000000 0;
#X obj 148 211 loadbang;
#X obj 148 279 metro 200;
#X msg 148 233 1;
#X obj 103 102 cnv 15 100 60 empty empty empty 20 12 0 14 #696969 #111111 0;
#N canvas 0 22 450 278 (subpatch) 0;
#X array \$0-scope 512 float 0;
#X coords 0 1 511 -1 100 60 1 0 0;
#X restore 103 102 graph;
#X connect 0 0 1 0;
#X connect 4 0 6 0;
#X connect 5 0 1 0;
#X connect 6 0 5 0;
#X coords 0 -1 1 1 99 59 2 103 102;
